<svg viewBox="0 0 15 15" fill="none" xmlns="http://www.w3.org/2000/svg">
<path d="M5.375 3.95831H6.79167V7.49998H10.3333V8.91665H5.375V3.95831Z" fill="white"/>
<path fill-rule="evenodd" clip-rule="evenodd" d="M14.5833 7.49999C14.5833 11.4121 11.4121 14.5833 7.5 14.5833C3.58787 14.5833 0.416664 11.4121 0.416664 7.49999C0.416664 3.58787 3.58787 0.416656 7.5 0.416656C11.4121 0.416656 14.5833 3.58787 14.5833 7.49999ZM13.1667 7.49999C13.1667 9.00288 12.5696 10.4442 11.5069 11.5069C10.4442 12.5696 9.00289 13.1667 7.5 13.1667C5.9971 13.1667 4.55577 12.5696 3.49306 11.5069C2.43035 10.4442 1.83333 9.00288 1.83333 7.49999C1.83333 5.9971 2.43035 4.55576 3.49306 3.49305C4.55577 2.43035 5.9971 1.83332 7.5 1.83332C9.00289 1.83332 10.4442 2.43035 11.5069 3.49305C12.5696 4.55576 13.1667 5.9971 13.1667 7.49999Z" fill="white"/>
</svg>
