<svg xmlns="http://www.w3.org/2000/svg" version="1.1" xmlns:xlink="http://www.w3.org/1999/xlink" xmlns:svgjs="http://svgjs.com/svgjs" width="31" height="29"><svg width="31" height="29" viewBox="0 0 29 31" fill="none" xmlns="http://www.w3.org/2000/svg">
<path d="M16.4434 17.7207C16.4434 16.6161 17.3388 15.7207 18.4434 15.7207H27.4138C28.5183 15.7207 29.4137 16.6161 29.4137 17.7207V26.8612C29.4137 27.9657 28.5183 28.8612 27.4137 28.8612H18.4434C17.3388 28.8612 16.4434 27.9657 16.4434 26.8612V17.7207Z" fill="#ADD42D"></path>
<path fill-rule="evenodd" clip-rule="evenodd" d="M27.8316 19.3303C27.8316 18.2257 26.9362 17.3303 25.8316 17.3303H20.0255C18.9209 17.3303 18.0255 18.2257 18.0255 19.3303V25.2517C18.0255 26.3563 18.9209 27.2517 20.0255 27.2517H25.8316C26.9362 27.2517 27.8316 26.3563 27.8316 25.2517V19.3303ZM18.0255 15.7207C17.1517 15.7207 16.4434 16.4291 16.4434 17.3029V17.3303V27.2517V27.279C16.4434 28.1528 17.1517 28.8612 18.0255 28.8612H27.8316C28.7054 28.8612 29.4137 28.1528 29.4137 27.279V27.2517V17.3303V17.3029C29.4137 16.4291 28.7054 15.7207 27.8316 15.7207H18.0255Z" fill="#ADD42D"></path>
<path fill-rule="evenodd" clip-rule="evenodd" d="M11.7595 19.2073C11.7595 18.655 11.3118 18.2073 10.7595 18.2073H4.8875C4.33522 18.2073 3.8875 18.655 3.8875 19.2073V25.0551C3.8875 25.6074 4.33522 26.0551 4.8875 26.0551H10.7595C11.3118 26.0551 11.7595 25.6074 11.7595 25.0551V19.2073ZM3.8875 15.2627H2.95508C1.85051 15.2627 0.955078 16.1581 0.955078 17.2627V18.2073V26.0551V26.9995C0.955078 28.1041 1.85051 28.9995 2.95508 28.9995H3.8875H11.7595H12.6919C13.7965 28.9995 14.6919 28.1041 14.6919 26.9995V26.0551V18.2073V17.2627C14.6919 16.1581 13.7965 15.2627 12.6919 15.2627H11.7595H3.8875Z" fill="#2D3ED4"></path>
<path d="M1.08398 2.15723C1.08398 1.05266 1.97941 0.157227 3.08398 0.157227H12.0543C13.1589 0.157227 14.0543 1.05266 14.0543 2.15723V11.2978C14.0543 12.4024 13.1589 13.2978 12.0543 13.2978H3.08398C1.97941 13.2978 1.08398 12.4024 1.08398 11.2978V2.15723Z" fill="#D42D2D"></path>
<path fill-rule="evenodd" clip-rule="evenodd" d="M23.1154 2.94456H23.0589C20.9007 2.94456 19.1512 4.70134 19.1512 6.86842C19.1512 9.03553 20.9007 10.7923 23.0589 10.7923H23.1154C25.2735 10.7923 27.0231 9.03553 27.0231 6.86842C27.0231 4.70134 25.2735 2.94456 23.1154 2.94456ZM23.0589 0C19.2812 0 16.2188 3.07509 16.2188 6.86842C16.2188 10.6618 19.2812 13.7368 23.0589 13.7368H23.1154C26.8931 13.7368 29.9556 10.6618 29.9556 6.86842C29.9556 3.07509 26.8931 0 23.1154 0H23.0589Z" fill="white"></path>
</svg><style>@media (prefers-color-scheme: light) { :root { filter: contrast(1) brightness(0.7); } }
</style></svg>