<svg viewBox="0 0 20 20" fill="none" xmlns="http://www.w3.org/2000/svg">
<path d="M3.24998 0.457545C3.34525 0.544897 3.43549 0.636587 3.52541 0.72951C3.56259 0.767382 3.56259 0.767382 3.60052 0.80602C3.67886 0.885861 3.75693 0.965964 3.83496 1.04611C3.91303 1.12608 3.99116 1.20599 4.0694 1.28578C4.11779 1.33514 4.16607 1.3846 4.21422 1.43419C4.32334 1.54569 4.43374 1.65261 4.55236 1.75376C4.79526 1.96762 5.01972 2.20101 5.24707 2.4314C5.2986 2.48346 5.35013 2.53552 5.40167 2.58757C5.54081 2.72814 5.67983 2.86882 5.81882 3.00953C5.96438 3.15684 6.11006 3.30404 6.25572 3.45125C6.53119 3.7297 6.80657 4.00824 7.08191 4.28682C7.39552 4.60412 7.70925 4.9213 8.02298 5.23847C8.66804 5.89061 9.31296 6.54288 9.95779 7.19525C10.1485 7.0348 10.3276 6.86642 10.5023 6.68844C10.5282 6.66221 10.5541 6.63598 10.5808 6.60895C10.667 6.52166 10.7531 6.43424 10.8391 6.34681C10.9011 6.28394 10.9632 6.22108 11.0252 6.15823C11.1585 6.02316 11.2918 5.88803 11.425 5.75286C11.6358 5.53894 11.8468 5.32522 12.0579 5.11154C12.3539 4.81179 12.6499 4.51202 12.9459 4.21217C12.974 4.18367 12.974 4.18367 13.0027 4.15459C13.3066 3.84674 13.6102 3.53873 13.9139 3.23068C14.2263 2.91375 14.539 2.59706 14.8518 2.28055C15.0615 2.06839 15.2709 1.85597 15.4801 1.64337C15.6106 1.51092 15.7413 1.37871 15.8721 1.24658C15.9325 1.18549 15.9928 1.12429 16.0529 1.06299C16.5958 0.510015 17.0884 0.0573729 17.8941 0.0512141C18.3784 0.0504229 18.7339 0.161618 19.1225 0.457545C19.1563 0.4803 19.1901 0.503054 19.2249 0.526498C19.5809 0.867261 19.7995 1.34472 19.8324 1.83692C19.8414 2.44007 19.6818 2.9254 19.2706 3.36354C19.1258 3.51349 18.9787 3.66093 18.8312 3.80819C18.765 3.87498 18.6989 3.94181 18.6328 4.00869C18.4726 4.17063 18.3119 4.33212 18.151 4.4934C17.9637 4.68127 17.7769 4.8697 17.5901 5.05817C17.2571 5.39418 16.9237 5.72976 16.59 6.06506C16.266 6.39057 15.9422 6.71629 15.6187 7.04229C15.5988 7.06242 15.5788 7.08255 15.5582 7.10329C15.458 7.20428 15.3578 7.30528 15.2576 7.40628C14.4276 8.24281 13.5969 9.07862 12.7657 9.91397C12.835 10.0638 12.9212 10.1597 13.0375 10.2772C13.0574 10.2974 13.0774 10.3176 13.0979 10.3384C13.1646 10.4061 13.2317 10.4735 13.2987 10.5408C13.3466 10.5893 13.3945 10.6378 13.4424 10.6863C13.5726 10.818 13.7031 10.9495 13.8336 11.081C13.9703 11.2187 14.1067 11.3566 14.2432 11.4946C14.4726 11.7263 14.7022 11.9579 14.9319 12.1894C15.197 12.4566 15.4618 12.724 15.7266 12.9915C16.0088 13.2767 16.2912 13.5617 16.5736 13.8467C16.6547 13.9286 16.7358 14.0105 16.8169 14.0924C16.9448 14.2216 17.0728 14.3507 17.2009 14.4797C17.2477 14.5268 17.2945 14.5741 17.3412 14.6213C17.5576 14.84 17.7739 15.0565 18.0067 15.2576C18.0865 15.3267 18.1619 15.3995 18.2367 15.4739C18.2654 15.5025 18.2942 15.531 18.3238 15.5604C18.3538 15.5904 18.3837 15.6204 18.4146 15.6512C18.4464 15.6831 18.4782 15.7149 18.511 15.7477C18.5778 15.8146 18.6446 15.8816 18.7113 15.9487C18.779 16.0167 18.8468 16.0844 18.9149 16.152C19.0142 16.2507 19.113 16.3498 19.2116 16.4491C19.2417 16.4788 19.2717 16.5084 19.3026 16.539C19.7457 16.9884 19.993 17.4727 20 18.1095C19.994 18.6503 19.8403 19.0619 19.4696 19.458C19.0494 19.8592 18.5543 20.0042 17.9847 19.9999C17.3663 19.9685 16.8713 19.7233 16.4406 19.2802C16.4127 19.2522 16.3848 19.2241 16.3561 19.1952C16.2637 19.1021 16.1718 19.0085 16.08 18.9148C16.0135 18.8476 15.947 18.7804 15.8804 18.7133C15.7191 18.5504 15.5582 18.3871 15.3974 18.2236C15.2102 18.0333 15.0225 17.8435 14.8348 17.6536C14.5001 17.3152 14.1657 16.9763 13.8316 16.6373C13.5072 16.3081 13.1827 15.979 12.8579 15.6502C12.8379 15.6299 12.8178 15.6096 12.7972 15.5887C12.6966 15.4869 12.596 15.3851 12.4954 15.2832C11.662 14.4396 10.8292 13.5954 9.99679 12.7509C9.80377 12.9143 9.62265 13.0844 9.44565 13.2652C9.41901 13.2922 9.39238 13.3193 9.36495 13.3471C9.27634 13.4371 9.18788 13.5273 9.09941 13.6174C9.03566 13.6822 8.97189 13.747 8.90811 13.8118C8.77105 13.9511 8.63404 14.0904 8.49706 14.2298C8.28019 14.4504 8.06307 14.6707 7.84588 14.891C7.8088 14.9286 7.77173 14.9662 7.73465 15.0038C7.67846 15.0608 7.62228 15.1177 7.5661 15.1747C7.35464 15.3892 7.14321 15.6036 6.93181 15.8182C6.91251 15.8377 6.8932 15.8573 6.87331 15.8775C6.56068 16.1948 6.24841 16.5124 5.93625 16.8301C5.61501 17.157 5.29332 17.4835 4.97123 17.8096C4.79071 17.9924 4.61041 18.1754 4.43061 18.359C4.2614 18.5317 4.09164 18.7039 3.92145 18.8756C3.85933 18.9385 3.7974 19.0016 3.73569 19.0649C3.23197 19.5815 2.78181 19.9647 2.03235 19.9764C1.44307 19.9753 0.960172 19.9134 0.514117 19.4872C0.0929555 19.0379 -0.0109735 18.5511 0.000885562 17.9507C0.0416795 17.0398 0.874786 16.4055 1.46787 15.8078C1.53095 15.7441 1.59403 15.6804 1.65709 15.6166C1.82699 15.445 1.99701 15.2734 2.16705 15.1019C2.34523 14.9221 2.5233 14.7422 2.70138 14.5624C2.99985 14.2609 3.2984 13.9595 3.597 13.6582C3.90433 13.348 4.21161 13.0379 4.51884 12.7276C4.53783 12.7084 4.55683 12.6893 4.57639 12.6695C4.67168 12.5733 4.76697 12.4771 4.86226 12.3808C5.65067 11.5847 6.43922 10.7887 7.22787 9.99278C7.06617 9.79779 6.89789 9.61491 6.71884 9.43621C6.69208 9.40933 6.66531 9.38245 6.63774 9.35476C6.54866 9.26533 6.45943 9.17605 6.3702 9.08676C6.30605 9.02241 6.24191 8.95805 6.17778 8.89367C6.03993 8.75532 5.90204 8.61703 5.76411 8.47876C5.54576 8.25982 5.32769 8.04061 5.1097 7.82132C5.07247 7.78388 5.03525 7.74644 4.99803 7.709C4.92269 7.63322 4.84735 7.55743 4.77201 7.48165C4.57869 7.28718 4.38535 7.09273 4.19198 6.8983C4.1629 6.86906 4.1629 6.86906 4.13322 6.83923C3.81927 6.52359 3.5049 6.20839 3.19039 5.89333C2.86671 5.56907 2.54357 5.24428 2.22088 4.91901C2.03999 4.73673 1.85887 4.5547 1.67714 4.37326C1.50609 4.20248 1.3357 4.03106 1.16578 3.85914C1.10356 3.79641 1.04111 3.73392 0.978403 3.6717C0.470493 3.16726 0.10125 2.69163 0.0764459 1.94743C0.0851069 1.39724 0.294012 0.891708 0.676054 0.496947C1.44938 -0.139008 2.46708 -0.17795 3.24998 0.457545Z" />
</svg>
